<mxfile host="app.diagrams.net" modified="2023-07-15T18:58:20.415Z" agent="Mozilla/5.0 (Windows NT 10.0; Win64; x64) AppleWebKit/537.36 (KHTML, like Gecko) Chrome/114.0.0.0 Safari/537.36 Edg/114.0.1823.82" etag="SM_Tbb2y7EBtuh5vCop9" version="21.6.2" type="device">
  <diagram name="Page-1" id="13e1069c-82ec-6db2-03f1-153e76fe0fe0">
    <mxGraphModel dx="1809" dy="1066" grid="1" gridSize="10" guides="1" tooltips="1" connect="1" arrows="1" fold="1" page="1" pageScale="1" pageWidth="1100" pageHeight="850" background="none" math="0" shadow="0">
      <root>
        <mxCell id="0" />
        <mxCell id="1" parent="0" />
        <mxCell id="7baba1c4bc27f4b0-2" value="Control remoto" style="shape=umlLifeline;perimeter=lifelinePerimeter;whiteSpace=wrap;html=1;container=1;collapsible=0;recursiveResize=0;outlineConnect=0;rounded=1;shadow=0;comic=0;labelBackgroundColor=none;strokeWidth=1;fontFamily=Verdana;fontSize=12;align=center;" parent="1" vertex="1">
          <mxGeometry x="250" y="80" width="120" height="700" as="geometry" />
        </mxCell>
        <mxCell id="_kQIhS6sLtN3Z4u0_AEb-4" value="" style="rounded=0;whiteSpace=wrap;html=1;" vertex="1" parent="7baba1c4bc27f4b0-2">
          <mxGeometry x="55" y="120" width="10" height="60" as="geometry" />
        </mxCell>
        <mxCell id="7baba1c4bc27f4b0-3" value="Unidad l칩gica" style="shape=umlLifeline;perimeter=lifelinePerimeter;whiteSpace=wrap;html=1;container=1;collapsible=0;recursiveResize=0;outlineConnect=0;rounded=1;shadow=0;comic=0;labelBackgroundColor=none;strokeWidth=1;fontFamily=Verdana;fontSize=12;align=center;" parent="1" vertex="1">
          <mxGeometry x="410" y="80" width="120" height="700" as="geometry" />
        </mxCell>
        <mxCell id="_kQIhS6sLtN3Z4u0_AEb-8" value="" style="rounded=0;whiteSpace=wrap;html=1;" vertex="1" parent="7baba1c4bc27f4b0-3">
          <mxGeometry x="55" y="180" width="10" height="300" as="geometry" />
        </mxCell>
        <mxCell id="_kQIhS6sLtN3Z4u0_AEb-9" value="" style="endArrow=classic;html=1;rounded=0;exitX=1.03;exitY=0.151;exitDx=0;exitDy=0;edgeStyle=orthogonalEdgeStyle;curved=1;entryX=1;entryY=0;entryDx=0;entryDy=0;exitPerimeter=0;" edge="1" parent="7baba1c4bc27f4b0-3" target="_kQIhS6sLtN3Z4u0_AEb-11">
          <mxGeometry width="50" height="50" relative="1" as="geometry">
            <mxPoint x="65.12999999999995" y="189.99999999999997" as="sourcePoint" />
            <mxPoint x="64.99999999999996" y="226.17999999999998" as="targetPoint" />
            <Array as="points">
              <mxPoint x="100" y="190" />
              <mxPoint x="100" y="220" />
            </Array>
          </mxGeometry>
        </mxCell>
        <mxCell id="_kQIhS6sLtN3Z4u0_AEb-10" value="validar &lt;br&gt;identificador" style="edgeLabel;html=1;align=center;verticalAlign=middle;resizable=0;points=[];" vertex="1" connectable="0" parent="_kQIhS6sLtN3Z4u0_AEb-9">
          <mxGeometry x="-0.1339" y="-1" relative="1" as="geometry">
            <mxPoint x="34" y="9" as="offset" />
          </mxGeometry>
        </mxCell>
        <mxCell id="_kQIhS6sLtN3Z4u0_AEb-11" value="" style="rounded=0;whiteSpace=wrap;html=1;" vertex="1" parent="7baba1c4bc27f4b0-3">
          <mxGeometry x="60" y="220" width="10" height="40" as="geometry" />
        </mxCell>
        <mxCell id="_kQIhS6sLtN3Z4u0_AEb-13" value="" style="endArrow=none;dashed=1;html=1;strokeWidth=2;rounded=0;exitX=0.001;exitY=0.609;exitDx=0;exitDy=0;exitPerimeter=0;entryX=1;entryY=0.223;entryDx=0;entryDy=0;entryPerimeter=0;" edge="1" parent="7baba1c4bc27f4b0-3" target="_kQIhS6sLtN3Z4u0_AEb-12">
          <mxGeometry width="50" height="50" relative="1" as="geometry">
            <mxPoint x="10.230000000000018" y="351.16999999999985" as="sourcePoint" />
            <mxPoint x="500" y="352" as="targetPoint" />
          </mxGeometry>
        </mxCell>
        <mxCell id="_kQIhS6sLtN3Z4u0_AEb-14" value="[identificador inv치lido]" style="text;html=1;strokeColor=none;fillColor=none;align=center;verticalAlign=middle;whiteSpace=wrap;rounded=0;fontStyle=1" vertex="1" parent="7baba1c4bc27f4b0-3">
          <mxGeometry x="74.5" y="265" width="131" height="20" as="geometry" />
        </mxCell>
        <mxCell id="_kQIhS6sLtN3Z4u0_AEb-15" value="[identificador v치lido]" style="text;html=1;strokeColor=none;fillColor=none;align=center;verticalAlign=middle;whiteSpace=wrap;rounded=0;fontStyle=1" vertex="1" parent="7baba1c4bc27f4b0-3">
          <mxGeometry x="74.5" y="356" width="128.12" height="20" as="geometry" />
        </mxCell>
        <mxCell id="_kQIhS6sLtN3Z4u0_AEb-17" value="" style="rounded=0;whiteSpace=wrap;html=1;" vertex="1" parent="7baba1c4bc27f4b0-3">
          <mxGeometry x="60" y="300" width="10" height="40" as="geometry" />
        </mxCell>
        <mxCell id="_kQIhS6sLtN3Z4u0_AEb-18" value="" style="endArrow=classic;html=1;rounded=0;exitX=1.039;exitY=0.351;exitDx=0;exitDy=0;edgeStyle=orthogonalEdgeStyle;curved=1;entryX=1.032;entryY=0.375;entryDx=0;entryDy=0;entryPerimeter=0;exitPerimeter=0;" edge="1" parent="7baba1c4bc27f4b0-3" source="_kQIhS6sLtN3Z4u0_AEb-8" target="_kQIhS6sLtN3Z4u0_AEb-17">
          <mxGeometry width="50" height="50" relative="1" as="geometry">
            <mxPoint x="64.99999999999994" y="285" as="sourcePoint" />
            <mxPoint x="69.87" y="315" as="targetPoint" />
            <Array as="points">
              <mxPoint x="100" y="285" />
              <mxPoint x="100" y="315" />
            </Array>
          </mxGeometry>
        </mxCell>
        <mxCell id="_kQIhS6sLtN3Z4u0_AEb-19" value="rechazar &lt;br&gt;comando" style="edgeLabel;html=1;align=center;verticalAlign=middle;resizable=0;points=[];" vertex="1" connectable="0" parent="_kQIhS6sLtN3Z4u0_AEb-18">
          <mxGeometry x="-0.1339" y="-1" relative="1" as="geometry">
            <mxPoint x="34" y="9" as="offset" />
          </mxGeometry>
        </mxCell>
        <mxCell id="_kQIhS6sLtN3Z4u0_AEb-20" value="" style="rounded=0;whiteSpace=wrap;html=1;" vertex="1" parent="7baba1c4bc27f4b0-3">
          <mxGeometry x="60" y="400" width="10" height="40" as="geometry" />
        </mxCell>
        <mxCell id="_kQIhS6sLtN3Z4u0_AEb-21" value="" style="endArrow=classic;html=1;rounded=0;exitX=1.039;exitY=0.669;exitDx=0;exitDy=0;edgeStyle=orthogonalEdgeStyle;curved=1;exitPerimeter=0;" edge="1" parent="7baba1c4bc27f4b0-3" source="_kQIhS6sLtN3Z4u0_AEb-8">
          <mxGeometry width="50" height="50" relative="1" as="geometry">
            <mxPoint x="70" y="380" as="sourcePoint" />
            <mxPoint x="70" y="410" as="targetPoint" />
            <Array as="points">
              <mxPoint x="100" y="381" />
              <mxPoint x="100" y="410" />
            </Array>
          </mxGeometry>
        </mxCell>
        <mxCell id="_kQIhS6sLtN3Z4u0_AEb-22" value="procesar comando y&amp;nbsp;&lt;br&gt;actualizar datos" style="edgeLabel;html=1;align=center;verticalAlign=middle;resizable=0;points=[];" vertex="1" connectable="0" parent="_kQIhS6sLtN3Z4u0_AEb-21">
          <mxGeometry x="-0.1339" y="-1" relative="1" as="geometry">
            <mxPoint x="57" y="11" as="offset" />
          </mxGeometry>
        </mxCell>
        <mxCell id="7baba1c4bc27f4b0-4" value="Microcontroladores de displays" style="shape=umlLifeline;perimeter=lifelinePerimeter;whiteSpace=wrap;html=1;container=1;collapsible=0;recursiveResize=0;outlineConnect=0;rounded=1;shadow=0;comic=0;labelBackgroundColor=none;strokeWidth=1;fontFamily=Verdana;fontSize=12;align=center;size=40;" parent="1" vertex="1">
          <mxGeometry x="580" y="80" width="120" height="700" as="geometry" />
        </mxCell>
        <mxCell id="7baba1c4bc27f4b0-5" value="LEDs / matrices LED / buzzer" style="shape=umlLifeline;perimeter=lifelinePerimeter;whiteSpace=wrap;html=1;container=1;collapsible=0;recursiveResize=0;outlineConnect=0;rounded=1;shadow=0;comic=0;labelBackgroundColor=none;strokeWidth=1;fontFamily=Verdana;fontSize=12;align=center;" parent="1" vertex="1">
          <mxGeometry x="750" y="80" width="130" height="700" as="geometry" />
        </mxCell>
        <mxCell id="7baba1c4bc27f4b0-8" value="Usuario" style="shape=umlLifeline;perimeter=lifelinePerimeter;whiteSpace=wrap;html=1;container=1;collapsible=0;recursiveResize=0;outlineConnect=0;rounded=1;shadow=0;comic=0;labelBackgroundColor=none;strokeWidth=1;fontFamily=Verdana;fontSize=12;align=center;" parent="1" vertex="1">
          <mxGeometry x="80" y="80" width="120" height="700" as="geometry" />
        </mxCell>
        <mxCell id="_kQIhS6sLtN3Z4u0_AEb-2" value="" style="rounded=0;whiteSpace=wrap;html=1;" vertex="1" parent="7baba1c4bc27f4b0-8">
          <mxGeometry x="55" y="100" width="10" height="540" as="geometry" />
        </mxCell>
        <mxCell id="_kQIhS6sLtN3Z4u0_AEb-3" value="" style="endArrow=classic;html=1;rounded=0;exitX=1.032;exitY=0.038;exitDx=0;exitDy=0;exitPerimeter=0;entryX=0;entryY=0;entryDx=0;entryDy=0;" edge="1" parent="1" source="_kQIhS6sLtN3Z4u0_AEb-2" target="_kQIhS6sLtN3Z4u0_AEb-4">
          <mxGeometry width="50" height="50" relative="1" as="geometry">
            <mxPoint x="310" y="200" as="sourcePoint" />
            <mxPoint x="360" y="150" as="targetPoint" />
          </mxGeometry>
        </mxCell>
        <mxCell id="_kQIhS6sLtN3Z4u0_AEb-5" value="presionar bot칩n" style="edgeLabel;html=1;align=center;verticalAlign=middle;resizable=0;points=[];" vertex="1" connectable="0" parent="_kQIhS6sLtN3Z4u0_AEb-3">
          <mxGeometry x="-0.1339" y="-1" relative="1" as="geometry">
            <mxPoint x="6" y="-11" as="offset" />
          </mxGeometry>
        </mxCell>
        <mxCell id="_kQIhS6sLtN3Z4u0_AEb-6" value="" style="endArrow=classic;html=1;rounded=0;exitX=1;exitY=1;exitDx=0;exitDy=0;entryX=0;entryY=0;entryDx=0;entryDy=0;" edge="1" parent="1" source="_kQIhS6sLtN3Z4u0_AEb-4" target="_kQIhS6sLtN3Z4u0_AEb-8">
          <mxGeometry width="50" height="50" relative="1" as="geometry">
            <mxPoint x="330" y="260" as="sourcePoint" />
            <mxPoint x="460" y="260" as="targetPoint" />
          </mxGeometry>
        </mxCell>
        <mxCell id="_kQIhS6sLtN3Z4u0_AEb-7" value="enviar comando" style="edgeLabel;html=1;align=center;verticalAlign=middle;resizable=0;points=[];" vertex="1" connectable="0" parent="_kQIhS6sLtN3Z4u0_AEb-6">
          <mxGeometry x="-0.1339" y="-1" relative="1" as="geometry">
            <mxPoint x="6" y="-11" as="offset" />
          </mxGeometry>
        </mxCell>
        <mxCell id="_kQIhS6sLtN3Z4u0_AEb-12" value="alt" style="shape=umlFrame;whiteSpace=wrap;html=1;pointerEvents=0;width=40;height=20;" vertex="1" parent="1">
          <mxGeometry x="420" y="345" width="480" height="405" as="geometry" />
        </mxCell>
        <mxCell id="_kQIhS6sLtN3Z4u0_AEb-33" style="edgeStyle=orthogonalEdgeStyle;rounded=0;orthogonalLoop=1;jettySize=auto;html=1;exitX=1;exitY=1;exitDx=0;exitDy=0;entryX=0;entryY=0;entryDx=0;entryDy=0;" edge="1" parent="1" source="_kQIhS6sLtN3Z4u0_AEb-26" target="_kQIhS6sLtN3Z4u0_AEb-32">
          <mxGeometry relative="1" as="geometry">
            <Array as="points">
              <mxPoint x="690" y="660" />
              <mxPoint x="690" y="660" />
            </Array>
          </mxGeometry>
        </mxCell>
        <mxCell id="_kQIhS6sLtN3Z4u0_AEb-36" value="se침ales electr칩nicas &lt;br&gt;y SPI" style="edgeLabel;html=1;align=center;verticalAlign=middle;resizable=0;points=[];" vertex="1" connectable="0" parent="_kQIhS6sLtN3Z4u0_AEb-33">
          <mxGeometry x="-0.1849" y="-2" relative="1" as="geometry">
            <mxPoint x="11" y="-18" as="offset" />
          </mxGeometry>
        </mxCell>
        <mxCell id="_kQIhS6sLtN3Z4u0_AEb-26" value="" style="rounded=0;whiteSpace=wrap;html=1;" vertex="1" parent="1">
          <mxGeometry x="635" y="560" width="10" height="100" as="geometry" />
        </mxCell>
        <mxCell id="_kQIhS6sLtN3Z4u0_AEb-27" style="edgeStyle=orthogonalEdgeStyle;rounded=0;orthogonalLoop=1;jettySize=auto;html=1;exitX=1;exitY=1;exitDx=0;exitDy=0;entryX=0;entryY=0;entryDx=0;entryDy=0;" edge="1" parent="1" source="_kQIhS6sLtN3Z4u0_AEb-8" target="_kQIhS6sLtN3Z4u0_AEb-26">
          <mxGeometry relative="1" as="geometry">
            <Array as="points">
              <mxPoint x="520" y="560" />
              <mxPoint x="520" y="560" />
            </Array>
          </mxGeometry>
        </mxCell>
        <mxCell id="_kQIhS6sLtN3Z4u0_AEb-28" value="enviar datos &lt;br&gt;actualizados" style="edgeLabel;html=1;align=center;verticalAlign=middle;resizable=0;points=[];" vertex="1" connectable="0" parent="_kQIhS6sLtN3Z4u0_AEb-27">
          <mxGeometry x="-0.0984" relative="1" as="geometry">
            <mxPoint x="6" y="-17" as="offset" />
          </mxGeometry>
        </mxCell>
        <mxCell id="_kQIhS6sLtN3Z4u0_AEb-29" value="" style="rounded=0;whiteSpace=wrap;html=1;" vertex="1" parent="1">
          <mxGeometry x="640" y="590" width="10" height="40" as="geometry" />
        </mxCell>
        <mxCell id="_kQIhS6sLtN3Z4u0_AEb-30" value="" style="endArrow=classic;html=1;rounded=0;edgeStyle=orthogonalEdgeStyle;curved=1;entryX=1;entryY=0.25;entryDx=0;entryDy=0;" edge="1" parent="1" target="_kQIhS6sLtN3Z4u0_AEb-29">
          <mxGeometry width="50" height="50" relative="1" as="geometry">
            <mxPoint x="645" y="570" as="sourcePoint" />
            <mxPoint x="670" y="589" as="targetPoint" />
            <Array as="points">
              <mxPoint x="700" y="569" />
              <mxPoint x="700" y="600" />
            </Array>
          </mxGeometry>
        </mxCell>
        <mxCell id="_kQIhS6sLtN3Z4u0_AEb-31" value="extraer datos y &lt;br&gt;actualizar displays" style="edgeLabel;html=1;align=center;verticalAlign=middle;resizable=0;points=[];" vertex="1" connectable="0" parent="_kQIhS6sLtN3Z4u0_AEb-30">
          <mxGeometry x="-0.1339" y="-1" relative="1" as="geometry">
            <mxPoint x="51" y="11" as="offset" />
          </mxGeometry>
        </mxCell>
        <mxCell id="_kQIhS6sLtN3Z4u0_AEb-34" style="edgeStyle=orthogonalEdgeStyle;rounded=0;orthogonalLoop=1;jettySize=auto;html=1;exitX=0;exitY=1;exitDx=0;exitDy=0;entryX=1.028;entryY=0.963;entryDx=0;entryDy=0;entryPerimeter=0;dashed=1;dashPattern=8 8;" edge="1" parent="1" source="_kQIhS6sLtN3Z4u0_AEb-32" target="_kQIhS6sLtN3Z4u0_AEb-2">
          <mxGeometry relative="1" as="geometry">
            <Array as="points">
              <mxPoint x="630" y="700" />
              <mxPoint x="630" y="700" />
            </Array>
          </mxGeometry>
        </mxCell>
        <mxCell id="_kQIhS6sLtN3Z4u0_AEb-35" value="mostrar datos y emitir &lt;br&gt;alertas sonoras" style="edgeLabel;html=1;align=center;verticalAlign=middle;resizable=0;points=[];" vertex="1" connectable="0" parent="_kQIhS6sLtN3Z4u0_AEb-34">
          <mxGeometry x="-0.2968" relative="1" as="geometry">
            <mxPoint x="-26" y="17" as="offset" />
          </mxGeometry>
        </mxCell>
        <mxCell id="_kQIhS6sLtN3Z4u0_AEb-32" value="" style="rounded=0;whiteSpace=wrap;html=1;" vertex="1" parent="1">
          <mxGeometry x="810" y="660" width="10" height="40" as="geometry" />
        </mxCell>
      </root>
    </mxGraphModel>
  </diagram>
</mxfile>
